<svg id="Layer_1" data-name="Layer 1" xmlns="http://www.w3.org/2000/svg" viewBox="0 0 774.34 451.24"><defs><style>.cls-1{fill:#24205d;}.cls-2{fill:#faec1a;}.cls-3{fill:#fff;}</style></defs><path class="cls-1" d="M585.67,627h49.66l2.31-13.71c2-11.85,6-40.67,9.15-63.82,1.53-11.2,2.86-20.87,3.48-25l2.81-18.87H618.69l-3.2,12.31c-2.6,10-17.78,66.23-24,88.18Z" transform="translate(-112.89 -274.22)"/><path class="cls-1" d="M785.66,459.8c23.27-5.68,36.55-21.4,43-49.64l16-69.68c4.62-20.17,2.2-36.38-7.19-48.16-9.57-12-25.37-18.1-47-18.1-10.64,0-20,1.55-28,4.64l.54-2.37H651.56l-1.69,7.37c-9-6.4-21.32-9.64-36.72-9.64a72.46,72.46,0,0,0-25.44,4.13l.42-1.86H483.41l-3.22,14.18c-9-9.41-22.66-14.18-40.74-14.18H381.38L378,291.33c-9.32-9.85-23.52-14.84-42.28-14.84H211l-70.66,86.06H260.75l-21.4,94.1c-3-.18-6-.29-9.21-.29-51.13,0-77.93,22.16-89.64,74.1l-24,106c-6.71,29.28-4,51,8.25,66.37,16.15,20.27,44.05,22.62,63.63,22.62,31.24,0,51.16-9.29,64.3-22.26L248.4,722H827.6L887.23,459.8ZM346,353.45l4.62-21v-.07c.73-3.38,2.89-13.47-3.23-21.75,3.39.86,5.87,2.15,7.19,3.8,2.39,3,2.7,9.42.85,17.65L352,347c-3.07,13.47-5.91,20.07-14.23,22.92C341.31,366.32,344.26,361.08,346,353.45Zm-136.1-23.79,16.65-20.28h46.34l-4.61,20.28ZM271.1,533.35l-1.68,7.71H246.31l2.07-9.09c1.72-7.24,3.2-17.79-3.48-26.25-2.47-3.13-8.16-8.39-18.46-8.39-20.72,0-25.36,19.72-27.13,27.27l-28.13,124c-1.44,6.53-4.13,18.68,3.11,27.7,2.86,3.55,8.2,7.8,17.39,7.8,21.61,0,26.49-20.43,28.6-29.3l4.1-17.88H247.6l-.2.89c-7.79,33.92-14.8,54.72-59.05,54.72-20,0-32.43-3.35-37.91-10.22-6.89-8.65-4.84-25.73-1.9-38.57l24.05-106.07c9.28-41.21,25.95-48.46,57.55-48.46,13.32,0,30.78,2,38.33,11.58C275.09,509.23,273.55,523.15,271.1,533.35Zm8.7-106.23,14.68-64.57h0l12.09-53.17h4.15L296.6,371.71h-.29l-12.39,55.41Zm84.35,262h-74.6L333.9,492.69h24.29L316,677.25h51.85ZM789.73,413.23l18.75-83,0-.17c.78-3.64,2.85-13.27-3.41-21.17,3.07.95,5.35,2.27,6.65,3.9,2.75,3.45,3.06,10.67.85,20.3l-16,69.71c-2.65,11.66-6,18.35-11.49,22.09A38.61,38.61,0,0,0,789.73,413.23Zm-47.59-7.58,17-73.73c2.24-9.71,5.39-15.74,9.82-19.42a36.85,36.85,0,0,0-4,10.81l-18.69,82.47,0,.18c-1.91,8.87-.6,16.17,3.87,21.7.13.17.27.33.41.5-3.66-.9-6.32-2.26-7.71-4C740.37,421.07,740.12,414.34,742.14,405.65Zm-110-93.73c1.07,1.36,2.41,4.6,1.55,12.06h-.14a23.1,23.1,0,0,0-3.3-13.67A7.3,7.3,0,0,1,632.16,311.92Zm-46.22,17c1.91-8.37,4.29-13.77,8.26-17.11a31.67,31.67,0,0,0-3.65,9.35c-2.94,12.95-1.08,20.78,3.69,28.24l-1.83,7.46h7.45c1.34,1.6,2.77,3.25,4.29,5,18.56,21.27,20.94,25.57,16.75,44.46-2.06,9.32-4.84,15.15-9.86,18.62a44.67,44.67,0,0,0,4.58-13.21c2.41-11.18.9-20.05-3.36-28.3l1.06-4.72h-3.83a93.32,93.32,0,0,0-9.16-11.54l-.82-.9C586.68,352.08,581.88,346.76,585.94,328.94Zm-16.68,82.67h3.33c-.44,5,0,11.06,3.83,16.26-2.72-.8-4.7-1.91-5.77-3.27C568.87,422.32,568.4,417.73,569.26,411.61Zm-59.6-102.23h4.21l-13.93,57.67h.17l-13.06,60.07h-4.16Zm-61.51.73-.07-.08c4.24.72,7.31,2,8.68,3.74,1.9,2.39,2.07,8,.44,15l-2.44,10.44c-2,8.84-5.23,11.43-7.26,12.35.64-2.05,1.07-3.93,1.42-5.41l2.72-12.89C452.63,328.78,454.85,318.46,448.15,310.11Zm-12.59,89.61c1.62-7.1,2.93-14.44,1.14-21l6.09,3.44.18.1c.19,1.51.21,5.87-2.49,16.94-2.93,12-5.06,21.07-6.54,27.95h-4.41C431.47,417.72,434.09,406.18,435.56,399.72Zm-35.89-36.15h-.29l-14.57,63.55h-3.95l26.77-117.74h4.13Zm131,139.62H480.52L461.85,580.5H510.2l-2.48,10.83H459.5l-19,87.3h54.38l-3.58,10.49H414.22l44.66-196.43h74.21ZM648.94,689.12H624.86l7.4-51.65H582.51l-13.68,51.65H543.76l66.53-196.43h61.46Zm25.9-262h-3.93l26.7-117.74h3.93ZM740.91,546c-1.2,7.54-3.25,21.56-5.62,37.78-4.89,33.5-12,82.23-16.37,105.38H701.57l44.67-196.43h33c-.79,12.86-1.65,26.25-2.53,39.42H743.12Zm60.44,143.16H766.61c.84-12.22,1.72-25,2.6-37.69h34.08l1.64-14.61c4-35.77,15.81-117.64,21-144.13H846Z" transform="translate(-112.89 -274.22)"/><path class="cls-2" d="M268.23,620.52l-4.8,21C255.29,677,244.93,709,188.35,709c-40.31,0-68.79-12.39-55.85-68.86l24-106.06c11.1-49.24,34.77-61.29,73.6-61.29,62.5,0,63.24,38.22,57,64.39l-4.44,20.32h-57l6.66-29.27c2.22-9.3,1.11-14.46-5.92-14.46-5.92,0-8.5,3.44-11.09,14.46l-28.11,124c-2.59,11.7-1.48,15.49,4.44,15.49,6.65,0,9.61-4.13,12.57-16.53l7-30.64Z" transform="translate(-112.89 -274.22)"/><path class="cls-2" d="M320.75,476.25h58.06L336.65,660.81h53.63l-14.06,44.76H269Z" transform="translate(-112.89 -274.22)"/><path class="cls-2" d="M520.83,607.78H472.76l-11.84,54.4h57l-14.8,43.39H393.61l52.15-229.32h108l-10,43.38H493.47l-10.73,44.42h48.08Z" transform="translate(-112.89 -274.22)"/><path class="cls-2" d="M595.17,653.92l-13.68,51.65H520.83L598.5,476.25h91.72L663.59,705.57h-57.7l7.4-51.65Zm26.26-43.39c3-17.56,10.72-76.09,12.57-88.49h-2.59c-2.59,10-17.75,66.11-24,88.49Z" transform="translate(-112.89 -274.22)"/><path class="cls-2" d="M681,705.57l52.15-229.32h63.61C793,539.6,786.74,625.34,786,635h2.59c4.07-36.15,17.38-129.12,22.19-150.47l1.85-8.26h54L814.48,705.57H749c4.07-60.26,10.36-149.44,11.1-157h-3c-4.07,25.49-17.75,125-23.67,151.51l-1.11,5.51Z" transform="translate(-112.89 -274.22)"/><path class="cls-3" d="M371.43,335.68c5.34-23.75-1.7-42.75-35.71-42.75H293.45L259.19,443.57h37.9l12.39-55.42h12.39c30.85,0,40.33-12,46.16-37.54Zm-36.93-6.79-4.61,21c-1.7,7.69-4.13,10.4-10.21,10.4H316l9.47-41.84h3.4C334.26,318.49,336.2,321,334.5,328.89Z" transform="translate(-112.89 -274.22)"/><path class="cls-3" d="M470.79,342.92l2.43-10.41c5.83-25.1-4.62-39.58-33.77-39.58H394.51L360.25,443.57h37.66L412.48,380h1.95c6.31,0,8.5,1.13,5.1,16.06-7.78,34.15-9.72,44.79-8.5,47.5h36.68c.48-5.88,4.37-22.62,8.74-40.49,5.35-21.94,3.65-30.08-5.58-35.28C460.1,365.08,467.39,357.62,470.79,342.92ZM435.56,329.8l-2.67,12.67c-2.19,9.49-4.13,12-11.42,12h-2.91l8-36h2.19C436.05,318.49,437.51,321,435.56,329.8Z" transform="translate(-112.89 -274.22)"/><polygon class="cls-3" points="414.99 47.21 448.03 47.21 454.58 18.71 383.65 18.71 349.39 169.35 421.3 169.35 431.02 140.85 393.61 140.85 401.38 105.11 432.96 105.11 439.52 76.39 407.94 76.39 414.99 47.21"/><path class="cls-3" d="M613.15,290.67c-25.27,0-37.66,10.18-43.24,34.61C563.83,352,574,362.6,588.13,378.2,598.82,390,602,397,599.54,408.29c-1.7,8.14-3.4,11.08-6.8,11.08-3.64,0-4.86-2.26-2.91-11.31l2.91-12.89H556.06l-1.46,5.88c-7,28.5,2.43,44.78,35,44.78,27.21,0,41.55-9.5,47.38-36,5.83-26.24-.49-36-20.41-58.81-10.45-12-12.63-14.48-10-26.24,1.46-6.33,4.13-7.23,6.32-7.23,4.61,0,5.1,3.84,3.15,12l-2.67,10.86h33.77l1-4.07C653.48,314.19,652.26,290.67,613.15,290.67Z" transform="translate(-112.89 -274.22)"/><polygon class="cls-3" points="629.5 18.71 551.76 18.71 545.2 47.21 565.13 47.21 537.43 169.35 575.09 169.35 602.78 47.21 622.94 47.21 629.5 18.71"/><path class="cls-3" d="M790.5,290.67c-24.3,0-40.58,8.14-47.38,37.55l-17,73.73c-7,30.31,7,43.88,36.44,43.88,27.94,0,43-8.37,50-39.35l16-69.67C835.68,306.05,822.81,290.67,790.5,290.67Zm1.94,36-18.71,82.79c-1.46,6.1-2.91,9.27-7.53,9.27-4.13,0-5.1-3.62-3.89-9.27L781,326.86c1.46-6.79,3.64-9.05,7.29-9.05C792.68,317.81,793.9,319.85,792.44,326.63Z" transform="translate(-112.89 -274.22)"/><polygon class="cls-3" points="62.18 71.88 168.46 71.88 180.56 18.71 105.84 18.71 62.18 71.88"/></svg>