<?xml version="1.0" encoding="UTF-8"?>
<svg xmlns="http://www.w3.org/2000/svg" xmlns:xlink="http://www.w3.org/1999/xlink" width="810pt" height="809.999993pt" viewBox="0 0 810 809.999993" version="1.2">
<defs>
<clipPath id="clip1">
  <path d="M 63.046875 405 L 202.242188 405 L 202.242188 592.335938 L 63.046875 592.335938 Z M 63.046875 405 "/>
</clipPath>
</defs>
<g id="surface1">
<g clip-path="url(#clip1)" clip-rule="nonzero">
<path style=" stroke:none;fill-rule:nonzero;fill:rgb(20.779419%,48.629761%,75.689697%);fill-opacity:1;" d="M 108.757812 562.183594 L 108.757812 558.917969 C 108.757812 550.519531 115.570312 543.691406 123.945312 543.691406 L 127.203125 543.691406 L 127.203125 461.15625 C 128.214844 461.089844 129.234375 461.050781 130.257812 461.050781 L 136.554688 461.050781 C 139 461.050781 140.988281 463.046875 140.988281 465.5 L 140.988281 548.191406 C 140.597656 548.171875 140.199219 548.15625 139.800781 548.15625 C 127.644531 548.15625 117.792969 558.035156 117.792969 570.226562 C 117.792969 571.136719 117.855469 572.03125 117.960938 572.910156 L 82.855469 572.910156 C 77.117188 572.910156 72.449219 568.234375 72.449219 562.480469 L 72.449219 562.183594 Z M 146.914062 570.226562 C 146.914062 574.164062 143.730469 577.355469 139.800781 577.355469 C 135.875 577.355469 132.6875 574.164062 132.6875 570.226562 C 132.6875 566.285156 135.875 563.09375 139.800781 563.09375 C 143.730469 563.09375 146.914062 566.285156 146.914062 570.226562 Z M 191.171875 519.488281 L 191.171875 554.375 C 181.898438 554.375 174.355469 546.8125 174.355469 537.515625 L 174.355469 431.253906 L 170.375 431.253906 L 170.375 427.628906 C 170.375 415.171875 160.265625 405.035156 147.84375 405.035156 L 113 405.035156 C 100.578125 405.035156 90.46875 415.171875 90.46875 427.628906 L 90.46875 467.921875 C 88.46875 469.878906 86.605469 471.992188 84.902344 474.25 L 74.535156 488.007812 C 67.125 497.84375 63.039062 510.046875 63.039062 522.371094 L 63.039062 562.480469 C 63.039062 573.433594 71.929688 582.34375 82.855469 582.34375 L 121.414062 582.34375 C 125.347656 588.335938 132.113281 592.292969 139.800781 592.292969 C 151.957031 592.292969 161.8125 582.414062 161.8125 570.226562 C 161.8125 561.890625 157.199219 554.636719 150.398438 550.882812 L 150.398438 465.5 C 150.398438 457.84375 144.1875 451.617188 136.554688 451.617188 L 130.257812 451.617188 C 118.238281 451.617188 106.578125 455.515625 96.980469 462.441406 L 96.980469 427.628906 C 96.980469 418.773438 104.167969 411.566406 113 411.566406 L 147.84375 411.566406 C 156.675781 411.566406 163.863281 418.773438 163.863281 427.628906 L 163.863281 431.253906 L 159.882812 431.253906 L 159.882812 537.515625 C 159.882812 554.816406 173.917969 568.890625 191.171875 568.890625 L 191.171875 591.105469 L 202.234375 591.105469 L 202.234375 519.488281 L 191.171875 519.488281 "/>
</g>
</g>
</svg>
