<svg xmlns="http://www.w3.org/2000/svg" width="257.686" height="216.338" viewBox="0 0 257.686 216.338">
  <g id="waterproof" transform="translate(0 -40.917)">
    <path id="Path_48" data-name="Path 48" d="M192.949,289.323c.4-.214.8-.427,1.2-.645a128.422,128.422,0,0,0,46.42-43.51l15.934-25.04-12.789-8.138-15.934,25.04a112.914,112.914,0,0,1-190.522,0L31.5,227.977l17.987,3.73,3.078-14.842-43.4-9-9,43.4L15,254.344,18.763,236.2l5.706,8.967a128.416,128.416,0,0,0,46.42,43.51c.4.218.8.431,1.2.645H0v50.527H257.686V289.322H192.949ZM85.588,304.481h20.105l-5.053,20.211H80.535ZM64.91,324.691H45.437l5.053-20.211H69.963Zm56.407-20.211h20.105l-5.053,20.211H116.265Zm35.729,0h20.105L172.1,324.691H151.994Zm35.729,0h20.106l-5.053,20.211H187.724Zm-177.618,0H34.865l-5.053,20.211H15.158Zm227.37,20.211H223.453l5.053-20.211h14.023Z" transform="translate(0 -82.594)" fill="#24205d"/>
    <path id="Path_49" data-name="Path 49" d="M202.9,191.571a60.7,60.7,0,0,0,60.632-60.632c0-13.945-9.5-32.642-28.237-55.573a350.711,350.711,0,0,0-27.182-29.508L202.9,40.917l-5.213,4.941a350.615,350.615,0,0,0-27.182,29.508c-18.736,22.931-28.236,41.628-28.236,55.573A60.7,60.7,0,0,0,202.9,191.571ZM182.149,85.076c7.838-9.6,15.758-17.973,20.755-23.051,5,5.078,12.918,13.448,20.755,23.051,15.94,19.531,24.719,35.818,24.719,45.862a45.474,45.474,0,1,1-90.948,0C157.431,120.895,166.21,104.607,182.149,85.076Z" transform="translate(-70.387)" fill="#24205d"/>
  </g>
</svg>
