<svg id="Capa_1" enable-background="new 0 0 512.695 512.695" height="512" viewBox="0 0 512.695 512.695" width="512" xmlns="http://www.w3.org/2000/svg"><g><path d="m481.082 484.412c-5-3.219-11.516-3.166-16.474.118-5.449 3.609-7.91 10.589-6.021 16.83 1.89 6.244 7.825 10.641 14.351 10.641 6.795 0 12.88-4.763 14.535-11.352 1.543-6.142-1.057-12.804-6.391-16.237z"/><path d="m360.64 484.138c-5.37-3.238-12.371-2.697-17.222 1.261-4.865 3.969-6.691 10.762-4.6 16.654s7.859 9.947 14.11 9.947c7.091 0 13.3-5.146 14.71-12.07 1.254-6.152-1.645-12.564-6.998-15.792z"/><path d="m422.057 443.752c-5.537-3.439-12.924-2.79-17.799 1.528-4.609 4.083-6.274 10.777-4.091 16.532 2.186 5.763 7.852 9.707 14.032 9.707 6.929 0 13.072-4.954 14.62-11.681 1.425-6.196-1.382-12.745-6.762-16.086z"/><path d="m467.169 402.982v-21.24c0-18.77-15.216-33.986-33.986-33.986h-16.776c-5.199-16.892-15.813-32.064-29.969-42.781-10.81-8.183-23.139-13.559-36.246-15.879v-204.126c0-46.853-38.117-84.97-84.97-84.97s-84.97 38.117-84.97 84.97v3.508h-2.865c-8.284 0-15 6.716-15 15v35.996c0 .009.001.018.001.028v97.185c0 49.695-40.43 90.125-90.125 90.125-16.982 0-33.326-4.752-47.483-13.578v158.755c0 8.284 6.716 15 15 15h103.754c-4.541-10.798-7.054-22.652-7.054-35.082 0-50.06 40.728-90.788 90.788-90.788.133 0 .264.004.396.005v-257.646c0-8.284-6.715-15-15-15h-2.413v-3.508c0-30.311 24.659-54.97 54.97-54.97s54.97 24.659 54.97 54.97v217.818c0 8.284 6.716 15 15 15 20.757 0 39.675 11.936 48.949 29.968h-4.803c-18.77 0-33.986 15.216-33.986 33.986v21.24c0 5.402 4.379 9.782 9.782 9.782h102.254c5.403 0 9.782-4.38 9.782-9.782z"/><circle cx="227.269" cy="451.906" r="60.789"/><path d="m72.264 296.811c33.153 0 60.125-26.972 60.125-60.125v-80.676c-57.362 11.363-101.52 59.405-107.02 118.666l5.413 5.457c11.26 10.757 25.985 16.678 41.482 16.678z"/></g></svg>