<svg id="Layer_1" data-name="Layer 1" xmlns="http://www.w3.org/2000/svg" viewBox="0 0 144.45 84.17"><defs><style>.cls-1{fill:#24205d;}.cls-2{fill:#faec1a;}.cls-3{fill:#fff;}</style></defs><path class="cls-1" d="M201.08,340h9.27l.43-2.56c.37-2.21,1.11-7.59,1.7-11.91.29-2.08.54-3.89.65-4.66l.53-3.52h-6.42l-.59,2.3c-.49,1.87-3.32,12.36-4.47,16.45Z" transform="translate(-112.89 -274.22)"/><path class="cls-1" d="M238.39,308.84c4.34-1.06,6.82-4,8-9.26l3-13c.86-3.76.41-6.78-1.34-9s-4.74-3.38-8.77-3.38a14.42,14.42,0,0,0-5.22.87l.1-.44H213.38l-.32,1.37a11.69,11.69,0,0,0-6.85-1.8,13.6,13.6,0,0,0-4.75.77l.08-.34H182l-.6,2.64c-1.68-1.75-4.23-2.64-7.6-2.64H163l-.62,2.76c-1.74-1.83-4.39-2.76-7.89-2.76H131.18L118,290.7h22.47l-4,17.55c-.56,0-1.13-.05-1.72-.05-9.53,0-14.54,4.13-16.72,13.82l-4.48,19.78c-1.25,5.46-.75,9.51,1.54,12.38,3,3.78,8.21,4.22,11.87,4.22,5.82,0,9.54-1.74,12-4.15l-.79,3.5h108l11.13-48.91Zm-82-19.84.86-3.92h0a5,5,0,0,0-.6-4.06,2.49,2.49,0,0,1,1.34.71c.44.55.5,1.75.16,3.29l-.64,2.78c-.57,2.51-1.1,3.74-2.65,4.27A6.1,6.1,0,0,0,156.37,289ZM131,284.56l3.1-3.78h8.65l-.86,3.78Zm11.42,38-.31,1.44h-4.31l.38-1.7a5.57,5.57,0,0,0-.64-4.89,4.25,4.25,0,0,0-3.45-1.57c-3.86,0-4.73,3.68-5.06,5.09l-5.25,23.14c-.26,1.22-.77,3.48.58,5.16a4,4,0,0,0,3.25,1.46c4,0,4.94-3.81,5.33-5.47l.77-3.33H138l0,.16c-1.45,6.33-2.76,10.21-11,10.21-3.74,0-6-.62-7.07-1.9-1.29-1.62-.91-4.8-.36-7.2L124,323.37c1.73-7.68,4.84-9,10.73-9,2.49,0,5.74.38,7.15,2.17C143.15,318.06,142.86,320.66,142.4,322.56ZM144,302.75l2.73-12.05h0l2.26-9.92h.77l-2.63,11.63h-.06l-2.31,10.34Zm15.73,48.87H145.84L154.12,315h4.53l-7.87,34.42h9.68Zm79.39-51.47,3.5-15.47v0a4.59,4.59,0,0,0-.63-3.94,2.48,2.48,0,0,1,1.24.72c.51.65.57,2,.16,3.79l-3,13c-.49,2.18-1.12,3.43-2.14,4.12A7.29,7.29,0,0,0,239.15,300.15Zm-8.88-1.41L233.44,285a6.33,6.33,0,0,1,1.84-3.63,7,7,0,0,0-.75,2L231,298.76v0a4.6,4.6,0,0,0,.72,4.05l.07.09a2.6,2.6,0,0,1-1.43-.75C229.94,301.62,229.89,300.36,230.27,298.74Zm-20.52-17.49c.21.26.45.86.3,2.26h0a4.33,4.33,0,0,0-.62-2.55A1.32,1.32,0,0,1,209.75,281.25Zm-8.62,3.18a5.6,5.6,0,0,1,1.54-3.19A6.13,6.13,0,0,0,202,283a6.28,6.28,0,0,0,.69,5.27l-.34,1.39h1.39l.8.93c3.46,4,3.91,4.77,3.12,8.3-.38,1.73-.9,2.82-1.83,3.47a8.64,8.64,0,0,0,.85-2.46,7.43,7.43,0,0,0-.63-5.28l.2-.88h-.71a17.73,17.73,0,0,0-1.71-2.16l-.15-.17C201.27,288.75,200.38,287.75,201.13,284.43ZM198,299.85h.62a4.39,4.39,0,0,0,.72,3,2.08,2.08,0,0,1-1.08-.61A3.47,3.47,0,0,1,198,299.85ZM186.9,280.78h.79l-2.6,10.76h0l-2.43,11.21h-.78Zm-11.47.14v0a2.75,2.75,0,0,1,1.62.7,3.82,3.82,0,0,1,.08,2.8l-.46,2c-.38,1.65-1,2.13-1.35,2.3.12-.38.2-.73.26-1l.51-2.4A5,5,0,0,0,175.43,280.92Zm-2.35,16.71a8.21,8.21,0,0,0,.21-3.92l1.14.64,0,0a10,10,0,0,1-.46,3.16c-.55,2.23-.95,3.93-1.22,5.22H172C172.32,301,172.81,298.84,173.08,297.63Zm-6.69-6.74h-.06l-2.72,11.86h-.73l5-22h.77Zm24.43,26h-9.35L178,331.36h9l-.46,2h-9L174,349.66h10.14l-.67,2H169.1L177.43,315h13.84Zm22.07,34.69h-4.5l1.38-9.64h-9.28l-2.55,9.64h-4.67L205.68,315h11.46Zm4.83-48.87H217l5-22h.73ZM230,324.91c-.22,1.41-.6,4-1,7-.91,6.25-2.24,15.34-3.05,19.66H222.7L231,315h6.16c-.15,2.4-.31,4.89-.48,7.35h-6.27Zm11.28,26.71h-6.48c.15-2.28.32-4.67.48-7h6.36l.3-2.73c.75-6.67,3-21.94,3.91-26.88h3.76Z" transform="translate(-112.89 -274.22)"/><path class="cls-2" d="M141.87,338.82l-.9,3.92c-1.52,6.62-3.45,12.59-14,12.59-7.52,0-12.84-2.31-10.42-12.85L121,322.7c2.07-9.19,6.49-11.43,13.73-11.43,11.66,0,11.8,7.13,10.63,12l-.83,3.79H133.93l1.25-5.46c.41-1.74.2-2.7-1.11-2.7-1.1,0-1.58.64-2.07,2.7l-5.24,23.12c-.48,2.18-.28,2.89.83,2.89s1.79-.77,2.34-3.08l1.31-5.72Z" transform="translate(-112.89 -274.22)"/><path class="cls-2" d="M151.66,311.91H162.5l-7.87,34.43h10L162,354.69H142Z" transform="translate(-112.89 -274.22)"/><path class="cls-2" d="M189,336.45h-9l-2.21,10.14h10.63l-2.76,8.1H165.26L175,311.91h20.15L193.27,320h-9.39l-2,8.29h9Z" transform="translate(-112.89 -274.22)"/><path class="cls-2" d="M202.86,345.05l-2.56,9.64H189l14.49-42.78h17.11l-5,42.78H204.86l1.38-9.64Zm4.89-8.09c.56-3.28,2-14.2,2.35-16.51h-.48c-.49,1.86-3.32,12.33-4.49,16.51Z" transform="translate(-112.89 -274.22)"/><path class="cls-2" d="M218.86,354.69l9.73-42.78h11.86c-.69,11.82-1.86,27.81-2,29.61h.49c.75-6.74,3.24-24.09,4.13-28.07l.35-1.54h10.07l-9.73,42.78H231.55c.76-11.24,1.94-27.88,2.07-29.29h-.55c-.76,4.75-3.31,23.31-4.41,28.26l-.21,1Z" transform="translate(-112.89 -274.22)"/><path class="cls-3" d="M161.12,285.69c1-4.43-.32-8-6.66-8h-7.89l-6.39,28.1h7.07l2.31-10.33h2.31c5.76,0,7.53-2.24,8.61-7Zm-6.89-1.27-.86,3.93c-.32,1.43-.77,1.94-1.9,1.94h-.68l1.76-7.81h.64C154.18,282.48,154.55,283,154.23,284.42Z" transform="translate(-112.89 -274.22)"/><path class="cls-3" d="M179.65,287l.46-1.94c1.08-4.69-.86-7.39-6.3-7.39h-8.39L159,305.81h7L168.78,294h.36c1.18,0,1.59.21,1,3-1.45,6.37-1.81,8.36-1.59,8.86h6.85c.09-1.09.81-4.22,1.63-7.55,1-4.09.68-5.61-1-6.58C177.66,291.17,179,289.78,179.65,287Zm-6.57-2.45-.5,2.36c-.4,1.78-.77,2.24-2.13,2.24h-.54l1.5-6.71h.4C173.17,282.48,173.44,283,173.08,284.59Z" transform="translate(-112.89 -274.22)"/><polygon class="cls-3" points="77.41 8.81 83.58 8.81 84.8 3.49 71.57 3.49 65.18 31.59 78.59 31.59 80.4 26.27 73.42 26.27 74.87 19.61 80.77 19.61 81.99 14.25 76.1 14.25 77.41 8.81"/><path class="cls-3" d="M206.21,277.29c-4.71,0-7,1.9-8.07,6.46-1.13,5,.77,7,3.4,9.87,2,2.19,2.58,3.5,2.13,5.61-.32,1.52-.63,2.07-1.27,2.07s-.9-.42-.54-2.11l.54-2.41h-6.84l-.27,1.1c-1.32,5.32.45,8.36,6.52,8.36,5.08,0,7.75-1.78,8.84-6.71s-.09-6.71-3.81-11c-2-2.24-2.35-2.7-1.85-4.9.27-1.18.77-1.35,1.17-1.35.86,0,1,.72.59,2.24l-.5,2h6.3l.19-.76C213.73,281.68,213.51,277.29,206.21,277.29Z" transform="translate(-112.89 -274.22)"/><polygon class="cls-3" points="117.43 3.49 102.93 3.49 101.7 8.81 105.42 8.81 100.25 31.59 107.28 31.59 112.44 8.81 116.2 8.81 117.43 3.49"/><path class="cls-3" d="M239.29,277.29c-4.53,0-7.57,1.52-8.84,7l-3.17,13.75c-1.31,5.65,1.32,8.19,6.8,8.19,5.21,0,8-1.57,9.34-7.35l3-13C247.72,280.16,245.32,277.29,239.29,277.29Zm.36,6.71-3.49,15.44c-.27,1.14-.54,1.73-1.4,1.73s-.95-.67-.73-1.73l3.49-15.4c.28-1.26.68-1.69,1.36-1.69S239.93,282.73,239.65,284Z" transform="translate(-112.89 -274.22)"/><polygon class="cls-3" points="11.6 13.41 31.43 13.41 33.68 3.49 19.74 3.49 11.6 13.41"/></svg>