<svg xmlns="http://www.w3.org/2000/svg" width="138" height="148" viewBox="0 0 138 148">
  <g id="facebookicon" transform="translate(-835 -815)">
    <path id="Path_51" data-name="Path 51" d="M0,0H138V148H0Z" transform="translate(835 815)" fill="#faec1a"/>
    <path id="facebook" d="M24.5,144.161A1.871,1.871,0,0,0,26.4,146H53.578a1.871,1.871,0,0,0,1.906-1.839V72.425h19.7a1.881,1.881,0,0,0,1.9-1.688l1.892-21.608a1.8,1.8,0,0,0-.495-1.4,1.939,1.939,0,0,0-1.4-.6h-21.6V31.8a6.63,6.63,0,0,1,6.745-6.511H77.413a1.871,1.871,0,0,0,1.906-1.839V1.839A1.873,1.873,0,0,0,77.413,0H51.761C36.706,0,24.5,11.772,24.5,26.294V47.135H10.906A1.874,1.874,0,0,0,9,48.969V70.586a1.871,1.871,0,0,0,1.906,1.839H24.5Z" transform="translate(861 815)" fill="#24205d" fill-rule="evenodd"/>
  </g>
</svg>
