<svg xmlns="http://www.w3.org/2000/svg" width="82.428" height="48.067" viewBox="0 0 82.428 48.067">
  <g id="Group_1" data-name="Group 1" transform="translate(-183.582 -18)">
    <g id="logoprestoMenu" transform="translate(183.582 18)">
      <path id="Path_2" data-name="Path 2" d="M201.08,330.278h5.291l.245-1.461c.211-1.261.634-4.332.97-6.8.165-1.187.308-2.22.371-2.66l.3-2.009H204.6l-.337,1.313c-.28,1.067-1.895,7.055-2.551,9.389Z" transform="translate(-150.74 -292.713)" fill="#24205d"/>
      <path id="Path_3" data-name="Path 3" d="M184.517,293.965c2.477-.605,3.893-2.283,4.566-5.285l1.712-7.42a5.865,5.865,0,0,0-.765-5.137c-1-1.267-2.705-1.929-5.006-1.929a8.231,8.231,0,0,0-2.979.5l.057-.251h-11.86l-.183.782a6.673,6.673,0,0,0-3.91-1.027,7.761,7.761,0,0,0-2.711.439l.046-.194H152.332l-.342,1.507a5.768,5.768,0,0,0-4.338-1.507h-6.164l-.354,1.575a5.958,5.958,0,0,0-4.5-1.575h-13.3l-7.523,9.172h12.825l-2.283,10.017c-.32,0-.645-.028-.982-.028-5.439,0-8.3,2.357-9.543,7.888l-2.557,11.29c-.713,3.116-.428,5.428.879,7.066,1.712,2.158,4.686,2.409,6.775,2.409,3.322,0,5.445-.993,6.849-2.369l-.451,2h61.642l6.353-27.916Zm-46.8-11.324.491-2.237h0a2.854,2.854,0,0,0-.342-2.317,1.421,1.421,0,0,1,.765.405,2.475,2.475,0,0,1,.091,1.878l-.365,1.587c-.325,1.433-.628,2.135-1.513,2.437a3.481,3.481,0,0,0,.862-1.752Zm-14.492-2.534,1.769-2.157h4.937l-.491,2.157Zm6.518,21.689-.177.822H127.1l.217-.97a3.179,3.179,0,0,0-.365-2.791,2.426,2.426,0,0,0-1.969-.9c-2.2,0-2.7,2.1-2.888,2.905l-3,13.207a3.453,3.453,0,0,0,.331,2.945,2.283,2.283,0,0,0,1.855.833c2.283,0,2.82-2.175,3.042-3.122l.439-1.9h2.449v.091c-.828,3.613-1.575,5.828-6.278,5.828-2.135,0-3.425-.354-4.035-1.084-.736-.925-.519-2.74-.205-4.109l2.528-11.3c.987-4.384,2.762-5.137,6.124-5.137,1.421,0,3.276.217,4.081,1.239.725.868.559,2.352.3,3.436Zm.9-11.307,1.558-6.878h0l1.29-5.662h.439l-1.5,6.638H132.4l-1.318,5.9Zm8.978,27.893h-7.928l4.726-20.9H139l-4.492,19.646h5.525ZM184.934,289l2-8.83h0a2.62,2.62,0,0,0-.36-2.249,1.415,1.415,0,0,1,.708.411,2.81,2.81,0,0,1,.091,2.163l-1.712,7.42a3.568,3.568,0,0,1-1.221,2.352,4.161,4.161,0,0,0,.514-1.267Zm-5.068-.8,1.826-7.842a3.613,3.613,0,0,1,1.05-2.072,4,4,0,0,0-.428,1.142l-2.015,8.784h0a2.625,2.625,0,0,0,.411,2.312l.04.051a1.484,1.484,0,0,1-.816-.428,2.623,2.623,0,0,1-.051-1.946Zm-11.712-9.983c.12.148.257.491.171,1.29h0a2.471,2.471,0,0,0-.354-1.455.754.754,0,0,1,.2.165Zm-4.92,1.815a3.2,3.2,0,0,1,.879-1.821,3.5,3.5,0,0,0-.365,1,3.584,3.584,0,0,0,.394,3.008l-.194.793h.793l.457.531c1.975,2.283,2.232,2.723,1.781,4.737a3.013,3.013,0,0,1-1.044,1.98,4.931,4.931,0,0,0,.485-1.4,4.241,4.241,0,0,0-.36-3.014l.114-.5h-.405a10.119,10.119,0,0,0-.976-1.233l-.086-.1c-1.376-1.518-1.884-2.089-1.455-3.984Zm-1.769,8.8h.354a2.506,2.506,0,0,0,.411,1.712,1.187,1.187,0,0,1-.616-.348A1.98,1.98,0,0,1,161.464,288.834Zm-6.335-10.884h.451l-1.484,6.141h0l-1.387,6.4h-.445Zm-6.547.08h0a1.569,1.569,0,0,1,.925.4,2.18,2.18,0,0,1,.046,1.6l-.263,1.142c-.217.942-.571,1.216-.771,1.313.068-.217.114-.417.148-.571l.291-1.37a2.854,2.854,0,0,0-.377-2.511Zm-1.341,9.537a4.686,4.686,0,0,0,.12-2.237l.651.365h0a5.708,5.708,0,0,1-.263,1.8c-.314,1.273-.542,2.243-.7,2.979h-.428c.183-.987.462-2.22.616-2.911Zm-3.818-3.847h-.034l-1.552,6.769h-.417l2.854-12.557h.439Zm13.944,14.84H152.03l-1.981,8.259h5.137l-.263,1.141h-5.137l-2.02,9.3h5.788l-.382,1.142h-8.2l4.754-20.924h7.9Zm12.6,19.8h-2.568l.788-5.5h-5.3l-1.455,5.5h-2.665l7.083-20.878h6.541Zm2.757-27.893h-.411l2.854-12.557h.417Zm7.009,12.671c-.126.8-.342,2.283-.571,4-.519,3.567-1.279,8.755-1.741,11.221h-1.855l4.737-20.873h3.516c-.086,1.37-.177,2.791-.274,4.2h-3.579Zm6.438,15.245h-3.7c.086-1.3.183-2.665.274-4h3.63l.171-1.558c.428-3.807,1.712-12.522,2.232-15.342h2.146Z" transform="translate(-112.882 -274.185)" fill="#24205d"/>
      <path id="Path_4" data-name="Path 4" d="M130.748,326.995l-.514,2.237c-.868,3.778-1.969,7.186-7.991,7.186-4.292,0-7.329-1.318-5.947-7.334l2.54-11.29c1.181-5.245,3.7-6.524,7.837-6.524,6.655,0,6.735,4.07,6.067,6.849l-.474,2.163h-6.05l.713-3.116c.234-.993.114-1.541-.634-1.541-.628,0-.9.365-1.181,1.541l-2.991,13.2c-.274,1.244-.16,1.65.474,1.65s1.022-.44,1.336-1.758l.748-3.265Z" transform="translate(-114.203 -290.103)" fill="#faec1a"/>
      <path id="Path_5" data-name="Path 5" d="M147.514,311.91H153.7l-4.492,19.651h5.708l-1.5,4.766H142Z" transform="translate(-125.381 -290.378)" fill="#faec1a"/>
      <path id="Path_6" data-name="Path 6" d="M178.81,325.917h-5.137l-1.261,5.788h6.067l-1.575,4.623H165.26l5.559-24.417h11.5l-1.073,4.617h-5.359l-1.142,4.732h5.137Z" transform="translate(-135.365 -290.378)" fill="#faec1a"/>
      <path id="Path_7" data-name="Path 7" d="M196.911,330.825l-1.461,5.5H189l8.27-24.417h9.766l-2.854,24.417h-6.13l.788-5.5Zm2.791-4.618c.32-1.872,1.142-8.1,1.341-9.423h-.274c-.28,1.062-1.895,7.038-2.563,9.423Z" transform="translate(-145.555 -290.378)" fill="#faec1a"/>
      <path id="Path_8" data-name="Path 8" d="M218.86,336.327l5.553-24.417h6.769c-.394,6.746-1.062,15.873-1.142,16.9h.28c.428-3.847,1.849-13.75,2.357-16.021l.2-.879h5.748l-5.554,24.417H226.1c.434-6.415,1.107-15.913,1.181-16.718h-.314c-.434,2.711-1.889,13.3-2.517,16.13l-.12.571Z" transform="translate(-158.372 -290.378)" fill="#faec1a"/>
      <path id="Path_9" data-name="Path 9" d="M152.132,282.256c.571-2.528-.183-4.566-3.8-4.566h-4.5l-3.647,16.038h4.035l1.318-5.9h1.318c3.288,0,4.3-1.279,4.914-4Zm-3.933-.725-.491,2.243c-.183.816-.439,1.107-1.084,1.107h-.388l1-4.458h.365C148.171,280.424,148.382,280.721,148.2,281.531Z" transform="translate(-124.599 -275.689)" fill="#fff"/>
      <path id="Path_10" data-name="Path 10" d="M170.786,283l.263-1.107c.616-2.677-.491-4.218-3.6-4.218h-4.789L159,293.731h4l1.587-6.741h.205c.674,0,.908.12.571,1.712-.828,3.636-1.033,4.772-.908,5.057h3.91c.051-.622.462-2.409.93-4.309.571-2.334.388-3.2-.571-3.756A3.341,3.341,0,0,0,170.786,283Zm-3.75-1.4-.285,1.347c-.228,1.016-.439,1.279-1.216,1.279h-.308l.856-3.83h.228c.776.023.93.32.725,1.227Z" transform="translate(-132.678 -275.681)" fill="#fff"/>
      <path id="Path_11" data-name="Path 11" d="M72.16,6.526h3.522l.7-3.036H68.827L65.18,19.528h7.654l1.033-3.036H69.883l.828-3.8h3.368l.7-3.059H71.413Z" transform="translate(-27.973 -1.478)" fill="#fff"/>
      <path id="Path_12" data-name="Path 12" d="M201.346,277.29c-2.688,0-4,1.085-4.606,3.687-.645,2.854.439,4,1.941,5.633,1.142,1.25,1.473,2,1.216,3.2-.183.868-.36,1.181-.725,1.181s-.514-.24-.308-1.2l.308-1.376h-3.9l-.154.628c-.753,3.036.257,4.772,3.721,4.772,2.9,0,4.423-1.016,5.046-3.83s-.051-3.83-2.175-6.278c-1.142-1.279-1.341-1.541-1.056-2.8.154-.673.439-.771.668-.771.491,0,.571.411.337,1.279l-.285,1.141h3.6l.108-.434C205.638,279.8,205.513,277.29,201.346,277.29Z" transform="translate(-148.078 -275.518)" fill="#fff"/>
      <path id="Path_13" data-name="Path 13" d="M110.056,3.49H101.78l-.7,3.036H103.2l-2.951,13h4.012l2.945-13h2.146Z" transform="translate(-43.027 -1.478)" fill="#fff"/>
      <path id="Path_14" data-name="Path 14" d="M233.992,277.29c-2.586,0-4.321.868-5.046,4l-1.809,7.848c-.748,3.225.753,4.675,3.881,4.675,2.974,0,4.566-.9,5.331-4.2l1.712-7.42C238.8,278.928,237.434,277.29,233.992,277.29Zm.205,3.83-1.992,8.813c-.154.651-.308.987-.8.987s-.542-.382-.417-.987l1.992-8.79c.16-.719.388-.965.776-.965S234.358,280.395,234.2,281.12Z" transform="translate(-161.844 -275.518)" fill="#fff"/>
      <path id="Path_15" data-name="Path 15" d="M11.6,9.152H22.918L24.2,3.49H16.246Z" transform="translate(-4.975 -1.478)" fill="#fff"/>
    </g>
  </g>
</svg>
