<svg id="no-virus" xmlns="http://www.w3.org/2000/svg" width="263.027" height="264.911" viewBox="0 0 263.027 264.911">
  <path id="Path_45" data-name="Path 45" d="M241,284.338h16.556v16.556H241Z" transform="translate(-117.764 -137.83)" fill="#24205d"/>
  <path id="Path_46" data-name="Path 46" d="M274.075,226.908h16.556v16.556H274.075Z" transform="translate(-133.926 -109.991)" fill="#24205d"/>
  <path id="Path_47" data-name="Path 47" d="M224.508,38.795a130.855,130.855,0,0,0-185.989,0,133.129,133.129,0,0,0,0,187.321,130.855,130.855,0,0,0,185.989,0,133.129,133.129,0,0,0,0-187.321Zm-10.9,10.976a117.54,117.54,0,0,1,5.267,159.7L181.13,171.451a63.614,63.614,0,0,0,7.474-12.274l24.812,9.335,5.393-14.541-25.458-9.577a63.978,63.978,0,0,0,.321-22.044l26.654-7.356-4.073-14.971-26.887,7.421a63.7,63.7,0,0,0-15.432-21.807l22.033-35.417-13.06-8.241-21.555,34.65a62.18,62.18,0,0,0-22.133-7.111V39.1H123.808V69.517A62.423,62.423,0,0,0,92.8,82.484L55.048,44.467a115.5,115.5,0,0,1,158.562,5.3Zm-82.1,130.576a47.893,47.893,0,1,1,47.55-47.891A47.776,47.776,0,0,1,131.514,180.347Zm-82.1,34.793a117.54,117.54,0,0,1-5.267-159.7L81.9,93.46a63.568,63.568,0,0,0-8.732,15.175L35.679,95.776,30.71,110.469l38.449,13.19a63.98,63.98,0,0,0,1.351,24.517l-25.559,8.432,4.8,14.751,26.409-8.712a63.756,63.756,0,0,0,16.572,19.728L73.568,213.688l13.12,8.144,19.24-31.44a62.093,62.093,0,0,0,17.881,5v16.152H139.22V195.394a62.424,62.424,0,0,0,31.013-12.967l37.747,38.017a115.5,115.5,0,0,1-158.562-5.3Z" fill="#24205d"/>
</svg>
