<svg id="Layer_1" enable-background="new 0 0 512 512" height="512" viewBox="0 0 512 512" width="512" xmlns="http://www.w3.org/2000/svg"><g><path d="m241 284.338h30v30h-30z"/><path d="m274.075 226.908h30v30h-30z"/><path d="m437.02 74.98c-48.353-48.351-112.64-74.98-181.02-74.98s-132.667 26.629-181.02 74.98c-48.351 48.353-74.98 112.64-74.98 181.02s26.629 132.667 74.98 181.02c48.353 48.351 112.64 74.98 181.02 74.98s132.667-26.629 181.02-74.98c48.351-48.353 74.98-112.64 74.98-181.02s-26.629-132.667-74.98-181.02zm-21.214 21.214c42.686 42.686 66.194 99.439 66.194 159.806 0 55.339-19.768 107.632-55.942 148.844l-73.477-73.477c5.703-7.292 10.594-15.246 14.549-23.722l48.299 18.042 10.498-28.104-49.555-18.51c1.43-7.476 2.188-15.188 2.188-23.074 0-6.646-.539-13.168-1.563-19.531l51.884-14.218-7.929-28.934-52.337 14.342c-6.947-16.122-17.254-30.468-30.04-42.147l42.888-68.452-25.422-15.928-41.958 66.968c-13.115-7.088-27.661-11.852-43.083-13.743v-58.787h-30v58.789c-22.582 2.768-43.285 11.7-60.368 25.061l-73.477-73.476c41.213-36.175 93.506-55.943 148.845-55.943 60.367 0 117.12 23.508 159.806 66.194zm-159.806 252.367c-51.038 0-92.56-41.522-92.56-92.561s41.522-92.561 92.56-92.561 92.56 41.522 92.56 92.561-41.522 92.561-92.56 92.561zm-159.806 67.245c-42.686-42.686-66.194-99.439-66.194-159.806 0-55.339 19.768-107.632 55.942-148.844l73.477 73.477c-6.944 8.879-12.688 18.739-16.997 29.33l-72.97-24.854-9.672 28.398 74.844 25.492c-.775 5.559-1.185 11.233-1.185 17.001 0 10.484 1.326 20.664 3.814 30.384l-49.753 16.296 9.338 28.51 51.406-16.837c8.054 14.814 19.075 27.79 32.258 38.129l-37.298 60.517 25.539 15.74 37.451-60.765c10.865 4.852 22.559 8.167 34.807 9.668v31.218h30v-31.218c22.582-2.768 43.285-11.7 60.368-25.061l73.477 73.476c-41.214 36.175-93.507 55.943-148.846 55.943-60.367 0-117.12-23.508-159.806-66.194z"/></g></svg>