<svg id="Capa_1" enable-background="new 0 0 510 510" height="512" viewBox="0 0 510 510" width="512" xmlns="http://www.w3.org/2000/svg"><g><path d="m381.875 369.083c.792-.424 1.584-.845 2.371-1.277 37.275-20.461 69.044-50.239 91.873-86.112l31.536-49.557-25.311-16.106-31.536 49.557c-41.239 64.806-111.721 103.496-188.536 103.496s-147.295-38.69-188.536-103.496l-11.401-17.918 35.599 7.382 6.091-29.375-85.9-17.813-17.812 85.9 29.375 6.091 7.446-35.909 11.293 17.747c22.829 35.874 54.597 65.651 91.872 86.112.787.432 1.58.854 2.371 1.277h-142.67v100h510v-100h-128.125zm-212.484 30h39.791l-10 40h-39.791zm-40.924 40h-38.541l10-40h38.541zm111.638-40h39.791l-10 40h-39.791zm70.714 0h39.791l-10 40h-39.791zm70.714 0h39.792l-10 40h-39.792zm-351.533 0h39.003l-10 40h-29.003zm450 40h-37.753l10-40h27.753z"/><path d="m262.272 339.083c66.168 0 120-53.832 120-120 0-27.599-18.802-64.604-55.885-109.987-26.549-32.492-52.697-57.357-53.797-58.4l-10.318-9.779-10.318 9.779c-1.1 1.042-27.248 25.908-53.797 58.4-37.082 45.384-55.884 82.389-55.884 109.987 0 66.168 53.831 120 119.999 120zm-41.078-210.768c15.512-19.006 31.188-35.571 41.078-45.622 9.891 10.051 25.566 26.615 41.078 45.622 31.548 38.654 48.922 70.889 48.922 90.768 0 49.626-40.374 90-90 90s-90-40.374-90-90c.001-19.878 17.375-52.114 48.922-90.768z"/></g></svg>